<?xml version="1.0" encoding="utf-8"?>
<!-- Generator: Adobe Illustrator 23.0.1, SVG Export Plug-In . SVG Version: 6.00 Build 0)  -->
<svg version="1.1" xmlns="http://www.w3.org/2000/svg" xmlns:xlink="http://www.w3.org/1999/xlink" x="0px" y="0px"
	 viewBox="0 0 456.7 345.4" style="enable-background:new 0 0 456.7 345.4;" xml:space="preserve">
<style type="text/css">
	.st0{display:none;}
	.st1{fill:#8FC642;}
	.st2{fill:#3EB54A;}
</style>
<g id="Layer_1" class="st0">
	
		<image style="overflow:visible;" width="620" height="531" xlink:href="26C6B909.jpg"  transform="matrix(1 0 0 1 -118.2438 81.8275)">
	</image>
</g>
<g id="Leaves">
	<path class="st1" d="M272.3,14c0,0-102.9,10.9-116.4,93.3c-0.2,1.5,155.2,27,93.6,180.8c-1,2.5,97.6-48.3,22.4-146
		S305,1.3,272.3,14z"/>
	<path class="st2" d="M166,233.9c0,0-1.4,31.1,0,32.5s29.3,16.1,29.3,16.1v-48.1L166,233.9z"/>
	<circle class="st2" cx="180.4" cy="196.1" r="10.9"/>
	<g>
		<path class="st2" d="M425.5,286.7c0,0-10.7,4.1-27.8,9c7.2-1.6,13.1-3.2,17.7-4.5C418.7,289.8,422.1,288.3,425.5,286.7z"/>
		<path class="st2" d="M87.6,199.8c-2.1-3.8-3.7-7.1-4.9-9.5c-1.2-1.9-2-3.5-2.2-5c0,0,0.7,1.8,2.2,5c0.5,0.7,1,1.5,1.5,2.2
			c-0.3-0.8-0.5-1.2-0.5-1.3c0.6,1,1.1,1.9,1.7,2.8c13.2,16.8,48.1,43,48.1,43v-20.9H119l65.5-65.5l65.3,65.3h-15.5v83.5
			c0.1,0,0.2,0.1,0.3,0.1c1.3-1.4,2.5-2.9,3.7-4.5c7.9-10.5,10.6-20.5,13.1-29.8c4-14.6,4.2-26.3,4.4-37.2
			c0.2-15.8,0.4-26.1-2.6-36.8c-6.9-24.7-27.4-38.8-38.6-46.9c-10.1-7.3-19.4-11.5-26.7-14.9c-9.3-4.3-15.3-5.7-32.9-11.8
			c-20.2-7-22.1-7.8-25.4-9.2c-4.2-1.8-15.4-6.7-27.2-14.9C96,88.9,86.1,82,77.1,70.2c-11-14.4-14.3-28.8-14.3-23
			c0,12.7-24.3,92.6-25.4,101.5c-5.3,43.7-4.6,68.4,3.3,92.4C47,259.9,55.3,271,59,275.7c11.5,14.2,24.1,21.7,30.4,25.4
			c3.4,2,15,8.6,31.6,12.9c11.5,3,20.1,3.6,35.8,4.6c9.9,0.6,18.1,1.2,29.1,0.4c12.8-0.9,23.3-3.1,30.8-5c0,0,0,0,0,0
			c15.6,4.2,94,21.5,194.7-21C187.7,365.4,105.4,235.4,87.6,199.8z"/>
	</g>
</g>
</svg>
